<svg viewBox="0 0 330 200" xmlns="http://www.w3.org/2000/svg"><g><g><g><g><g><line x1="39.98800086975098" y1="178.61999988555908" x2="34.98800086975098" y2="178.61999988555908" style="visibility: inherit;" fill="rgb(0, 0, 0)" stroke="rgb(204, 204, 204)" stroke-width="1px"></line><line x1="39.98800086975098" y1="165.76602753890876" x2="34.98800086975098" y2="165.76602753890876" style="visibility: inherit;" fill="rgb(0, 0, 0)" stroke="rgb(204, 204, 204)" stroke-width="1px"></line><line x1="39.98800086975098" y1="152.91205519225844" x2="34.98800086975098" y2="152.91205519225844" style="visibility: inherit;" fill="rgb(0, 0, 0)" stroke="rgb(204, 204, 204)" stroke-width="1px"></line><line x1="39.98800086975098" y1="140.0580828456081" x2="34.98800086975098" y2="140.0580828456081" style="visibility: inherit;" fill="rgb(0, 0, 0)" stroke="rgb(204, 204, 204)" stroke-width="1px"></line><line x1="39.98800086975098" y1="127.20411049895777" x2="34.98800086975098" y2="127.20411049895777" style="visibility: inherit;" fill="rgb(0, 0, 0)" stroke="rgb(204, 204, 204)" stroke-width="1px"></line><line x1="39.98800086975098" y1="114.35013815230747" x2="34.98800086975098" y2="114.35013815230747" style="visibility: inherit;" fill="rgb(0, 0, 0)" stroke="rgb(204, 204, 204)" stroke-width="1px"></line><line x1="39.98800086975098" y1="101.49616580565716" x2="34.98800086975098" y2="101.49616580565716" style="visibility: inherit;" fill="rgb(0, 0, 0)" stroke="rgb(204, 204, 204)" stroke-width="1px"></line><line x1="39.98800086975098" y1="88.64219345900682" x2="34.98800086975098" y2="88.64219345900682" style="visibility: inherit;" fill="rgb(0, 0, 0)" stroke="rgb(204, 204, 204)" stroke-width="1px"></line><line x1="39.98800086975098" y1="75.78822111235648" x2="34.98800086975098" y2="75.78822111235648" style="visibility: inherit;" fill="rgb(0, 0, 0)" stroke="rgb(204, 204, 204)" stroke-width="1px"></line><line x1="39.98800086975098" y1="62.934248765706165" x2="34.98800086975098" y2="62.934248765706165" style="visibility: inherit;" fill="rgb(0, 0, 0)" stroke="rgb(204, 204, 204)" stroke-width="1px"></line><line x1="39.98800086975098" y1="50.08027641905585" x2="34.98800086975098" y2="50.08027641905585" style="visibility: inherit;" fill="rgb(0, 0, 0)" stroke="rgb(204, 204, 204)" stroke-width="1px"></line><line x1="39.98800086975098" y1="37.22630407240552" x2="34.98800086975098" y2="37.22630407240552" style="visibility: inherit;" fill="rgb(0, 0, 0)" stroke="rgb(204, 204, 204)" stroke-width="1px"></line><line x1="39.98800086975098" y1="24.3723317257552" x2="34.98800086975098" y2="24.3723317257552" style="visibility: inherit;" fill="rgb(0, 0, 0)" stroke="rgb(204, 204, 204)" stroke-width="1px"></line><line x1="39.98800086975098" y1="11.518359379104865" x2="34.98800086975098" y2="11.518359379104865" style="visibility: inherit;" fill="rgb(0, 0, 0)" stroke="rgb(204, 204, 204)" stroke-width="1px"></line></g><g transform="translate(29.988000869750977, 0)"><text style="text-anchor: end; visibility: hidden; font-family: Roboto, sans-serif; font-size: 12px; font-weight: 200;" x="0" y="178.61999988555908" dx="0em" dy="0.3em" fill="rgb(50, 49, 63)" stroke="none" stroke-width="1px">0</text><text style="text-anchor: end; visibility: inherit; font-family: Roboto, sans-serif; font-size: 12px; font-weight: 200;" x="0" y="165.76602753890876" dx="0em" dy="0.3em" fill="rgb(50, 49, 63)" stroke="none" stroke-width="1px">0.2</text><text style="text-anchor: end; visibility: hidden; font-family: Roboto, sans-serif; font-size: 12px; font-weight: 200;" x="0" y="152.91205519225844" dx="0em" dy="0.3em" fill="rgb(50, 49, 63)" stroke="none" stroke-width="1px">0.4</text><text style="text-anchor: end; visibility: inherit; font-family: Roboto, sans-serif; font-size: 12px; font-weight: 200;" x="0" y="140.0580828456081" dx="0em" dy="0.3em" fill="rgb(50, 49, 63)" stroke="none" stroke-width="1px">0.6</text><text style="text-anchor: end; visibility: hidden; font-family: Roboto, sans-serif; font-size: 12px; font-weight: 200;" x="0" y="127.20411049895777" dx="0em" dy="0.3em" fill="rgb(50, 49, 63)" stroke="none" stroke-width="1px">0.8</text><text style="text-anchor: end; visibility: inherit; font-family: Roboto, sans-serif; font-size: 12px; font-weight: 200;" x="0" y="114.35013815230747" dx="0em" dy="0.3em" fill="rgb(50, 49, 63)" stroke="none" stroke-width="1px">1</text><text style="text-anchor: end; visibility: hidden; font-family: Roboto, sans-serif; font-size: 12px; font-weight: 200;" x="0" y="101.49616580565716" dx="0em" dy="0.3em" fill="rgb(50, 49, 63)" stroke="none" stroke-width="1px">1.2</text><text style="text-anchor: end; visibility: inherit; font-family: Roboto, sans-serif; font-size: 12px; font-weight: 200;" x="0" y="88.64219345900682" dx="0em" dy="0.3em" fill="rgb(50, 49, 63)" stroke="none" stroke-width="1px">1.4</text><text style="text-anchor: end; visibility: hidden; font-family: Roboto, sans-serif; font-size: 12px; font-weight: 200;" x="0" y="75.78822111235648" dx="0em" dy="0.3em" fill="rgb(50, 49, 63)" stroke="none" stroke-width="1px">1.6</text><text style="text-anchor: end; visibility: inherit; font-family: Roboto, sans-serif; font-size: 12px; font-weight: 200;" x="0" y="62.934248765706165" dx="0em" dy="0.3em" fill="rgb(50, 49, 63)" stroke="none" stroke-width="1px">1.8</text><text style="text-anchor: end; visibility: hidden; font-family: Roboto, sans-serif; font-size: 12px; font-weight: 200;" x="0" y="50.08027641905585" dx="0em" dy="0.3em" fill="rgb(50, 49, 63)" stroke="none" stroke-width="1px">2</text><text style="text-anchor: end; visibility: inherit; font-family: Roboto, sans-serif; font-size: 12px; font-weight: 200;" x="0" y="37.22630407240552" dx="0em" dy="0.3em" fill="rgb(50, 49, 63)" stroke="none" stroke-width="1px">2.2</text><text style="text-anchor: end; visibility: hidden; font-family: Roboto, sans-serif; font-size: 12px; font-weight: 200;" x="0" y="24.3723317257552" dx="0em" dy="0.3em" fill="rgb(50, 49, 63)" stroke="none" stroke-width="1px">2.4</text><text style="text-anchor: end; visibility: inherit; font-family: Roboto, sans-serif; font-size: 12px; font-weight: 200;" x="0" y="11.518359379104865" dx="0em" dy="0.3em" fill="rgb(50, 49, 63)" stroke="none" stroke-width="1px">2.6</text></g><line x1="39.98800086975098" y1="0" x2="39.98800086975098" y2="178.61999988555908" fill="rgb(0, 0, 0)" stroke="rgb(204, 204, 204)" stroke-width="1px"></line></g></g><g transform="translate(39, 0)" clip-path="url(#clip_0)"><clipPath id="clip_0"><rect width="290" height="178"></rect></clipPath><g><g><g><line x1="0" y1="0" x2="0" y2="178.61999988555908" fill="rgb(0, 0, 0)" stroke="rgb(60, 60, 60)" stroke-width="1px" opacity="0.25"></line><line x1="32.22355545891656" y1="0" x2="32.22355545891656" y2="178.61999988555908" fill="rgb(0, 0, 0)" stroke="rgb(60, 60, 60)" stroke-width="1px" opacity="0.25"></line><line x1="64.44711091783311" y1="0" x2="64.44711091783311" y2="178.61999988555908" fill="rgb(0, 0, 0)" stroke="rgb(60, 60, 60)" stroke-width="1px" opacity="0.25"></line><line x1="96.67066637674967" y1="0" x2="96.67066637674967" y2="178.61999988555908" fill="rgb(0, 0, 0)" stroke="rgb(60, 60, 60)" stroke-width="1px" opacity="0.25"></line><line x1="128.89422183566623" y1="0" x2="128.89422183566623" y2="178.61999988555908" fill="rgb(0, 0, 0)" stroke="rgb(60, 60, 60)" stroke-width="1px" opacity="0.25"></line><line x1="161.1177772945828" y1="0" x2="161.1177772945828" y2="178.61999988555908" fill="rgb(0, 0, 0)" stroke="rgb(60, 60, 60)" stroke-width="1px" opacity="0.25"></line><line x1="193.34133275349933" y1="0" x2="193.34133275349933" y2="178.61999988555908" fill="rgb(0, 0, 0)" stroke="rgb(60, 60, 60)" stroke-width="1px" opacity="0.25"></line><line x1="225.56488821241592" y1="0" x2="225.56488821241592" y2="178.61999988555908" fill="rgb(0, 0, 0)" stroke="rgb(60, 60, 60)" stroke-width="1px" opacity="0.25"></line><line x1="257.78844367133246" y1="0" x2="257.78844367133246" y2="178.61999988555908" fill="rgb(0, 0, 0)" stroke="rgb(60, 60, 60)" stroke-width="1px" opacity="0.25"></line><line x1="290.011999130249" y1="0" x2="290.011999130249" y2="178.61999988555908" fill="rgb(0, 0, 0)" stroke="rgb(60, 60, 60)" stroke-width="1px" opacity="0.25"></line></g><g><line x1="0" y1="178.61999988555908" x2="290.011999130249" y2="178.61999988555908" fill="rgb(0, 0, 0)" stroke="rgb(60, 60, 60)" stroke-width="1px" opacity="0.25"></line><line x1="0" y1="165.76602753890876" x2="290.011999130249" y2="165.76602753890876" fill="rgb(0, 0, 0)" stroke="rgb(60, 60, 60)" stroke-width="1px" opacity="0.25"></line><line x1="0" y1="152.91205519225844" x2="290.011999130249" y2="152.91205519225844" fill="rgb(0, 0, 0)" stroke="rgb(60, 60, 60)" stroke-width="1px" opacity="0.25"></line><line x1="0" y1="140.0580828456081" x2="290.011999130249" y2="140.0580828456081" fill="rgb(0, 0, 0)" stroke="rgb(60, 60, 60)" stroke-width="1px" opacity="0.25"></line><line x1="0" y1="127.20411049895777" x2="290.011999130249" y2="127.20411049895777" fill="rgb(0, 0, 0)" stroke="rgb(60, 60, 60)" stroke-width="1px" opacity="0.25"></line><line x1="0" y1="114.35013815230747" x2="290.011999130249" y2="114.35013815230747" fill="rgb(0, 0, 0)" stroke="rgb(60, 60, 60)" stroke-width="1px" opacity="0.25"></line><line x1="0" y1="101.49616580565716" x2="290.011999130249" y2="101.49616580565716" fill="rgb(0, 0, 0)" stroke="rgb(60, 60, 60)" stroke-width="1px" opacity="0.25"></line><line x1="0" y1="88.64219345900682" x2="290.011999130249" y2="88.64219345900682" fill="rgb(0, 0, 0)" stroke="rgb(60, 60, 60)" stroke-width="1px" opacity="0.25"></line><line x1="0" y1="75.78822111235648" x2="290.011999130249" y2="75.78822111235648" fill="rgb(0, 0, 0)" stroke="rgb(60, 60, 60)" stroke-width="1px" opacity="0.25"></line><line x1="0" y1="62.934248765706165" x2="290.011999130249" y2="62.934248765706165" fill="rgb(0, 0, 0)" stroke="rgb(60, 60, 60)" stroke-width="1px" opacity="0.25"></line><line x1="0" y1="50.08027641905585" x2="290.011999130249" y2="50.08027641905585" fill="rgb(0, 0, 0)" stroke="rgb(60, 60, 60)" stroke-width="1px" opacity="0.25"></line><line x1="0" y1="37.22630407240552" x2="290.011999130249" y2="37.22630407240552" fill="rgb(0, 0, 0)" stroke="rgb(60, 60, 60)" stroke-width="1px" opacity="0.25"></line><line x1="0" y1="24.3723317257552" x2="290.011999130249" y2="24.3723317257552" fill="rgb(0, 0, 0)" stroke="rgb(60, 60, 60)" stroke-width="1px" opacity="0.25"></line><line x1="0" y1="11.518359379104865" x2="290.011999130249" y2="11.518359379104865" fill="rgb(0, 0, 0)" stroke="rgb(60, 60, 60)" stroke-width="1px" opacity="0.25"></line></g></g></g><g><g><line x1="0" y1="178.61999988555908" x2="290.011999130249" y2="178.61999988555908" fill="rgb(0, 0, 0)" stroke="rgb(153, 153, 153)" stroke-width="1.5px"></line></g></g><g><g><line x1="32.22355545891656" y1="0" x2="32.22355545891656" y2="178.61999988555908" fill="rgb(0, 0, 0)" stroke="rgb(153, 153, 153)" stroke-width="1.5px"></line></g></g><g><g><g><g><g><path style="fill: none;" stroke="rgb(255, 112, 67)" stroke-width="2px" d="M32.22355545891656,89.30999994277954L33.83473323186239,94.12974655109419L35.44591100480821,101.00160218183792L37.05708877775404,112.38830096097777L38.66826655069987,121.87024546416154L40.2794443236457,133.5775762846419L41.89062209659152,131.0182795576206L43.50179986953735,132.81931149127283L45.11297764248318,130.5585457517708L46.72415541542901,131.5175010365979L48.33533318837483,138.2783420522184L49.94651096132066,142.05131294953134L51.55768873426649,140.31125843516662L53.168866507212314,147.24941356214964L54.780044280158144,150.93521063283345L56.39122205310398,152.02979602717724L58.00239982604981,153.73056239119674L59.61357759899563,157.3094420712373L61.22475537194146,160.62031247384326L62.83593314488729,162.27068734633528L64.44711091783311,164.5523556071858L66.05828869077894,161.35909622500722L67.66946646372477,164.1188676459336L69.2806442366706,158.4481854599151L70.89182200961642,155.28288343279175L72.50299978256226,160.5836157896437L74.11417755550808,159.44508544606774L75.72535532845392,159.1209155702356L77.33653310139974,164.66140265238744L78.94771087434556,151.76343185754038L80.5588886472914,144.43459093308113L82.17006642023722,145.86781164330498L83.78124419318304,124.02968063088801L85.39242196612888,114.24289954505525L87.0035997390747,134.3155292833157L88.61477751202054,133.6073872001421L90.22595528496636,142.80241227206912L91.83713305791218,148.19408867913114L93.44831083085802,137.06211100013485L95.05948860380384,131.69484475567364L96.67066637674967,134.51262227349525L98.2818441496955,137.83243161236936L99.89302192264132,147.46263275597727L101.50419969558715,140.10675473766986L103.11537746853298,124.88557672793745L104.7265552414788,129.84774297713489L106.33773301442463,138.56425944361342L107.94891078737048,138.60993182571625L109.56008856031629,140.67863348149154L111.17126633326214,146.50075755440733L112.78244410620796,147.73330196578502L114.39362187915378,150.91346290692846L116.00479965209962,148.11140426578365L117.61597742504544,131.771640852751L119.22715519799127,139.57867654747486L120.8383329709371,134.79858565510673L122.44951074388293,138.47767514227007L124.06068851682875,121.50826033065741L125.67186628977458,116.61228805588222L127.2830440627204,127.21698586819493L128.89422183566623,118.68093304710305L130.50539960861207,132.0032676574832L132.11657738155787,141.36166732211404L133.7277551545037,142.67219881362797L135.33893292744955,140.2814323766474L136.95011070039536,136.6161179869609L138.5612884733412,114.20771405923286L140.17246624628703,104.28595249054618L141.78364401923284,116.77313220274277L143.3948217921787,110.49468486854997L145.0059995651245,119.20325615993366L146.61717733807032,128.97949546344375L148.22835511101616,104.35030591243155L149.83953288396202,120.79949973351242L151.45071065690783,117.23408562692735L153.06188842985367,125.29070017305689L154.67306620279948,132.10415975362918L156.2842439757453,121.65891562625114L157.89542174869112,128.78334888448293L159.50659952163699,133.08542038509316L161.1177772945828,131.15219976155103L162.72895506752863,123.07623435456591L164.34013284047444,120.03107987644906L165.95131061342028,124.51359512926892L167.56248838636608,113.63040669249365L169.17366615931195,113.14587872556278L170.78484393225776,114.16817942675895L172.3960217052036,114.45311776880635L174.0071994781494,108.42817045236696L175.61837725109524,96.21149917750022L177.22955502404108,113.89686325158323L178.8407327969869,113.9464004307485L180.45191056993272,113.29560418656239L182.06308834287856,116.20753658033308L183.67426611582437,113.41893334321952L185.2854438887702,113.60278754746756L186.89662166171604,119.39283852899283L188.50779943466188,105.68914797692182L190.11897720760768,99.5523349023804L191.73015498055352,83.7860903299123L193.34133275349933,95.44939046054077L194.9525105264452,115.86790562450577L196.563688299391,106.47438155841179L198.17486607233684,98.36704172947967L199.78604384528265,84.71086991821932L201.39722161822849,77.48205814248828L203.0083993911743,98.39094561295055L204.61957716412016,105.74310261655687L206.23075493706597,113.76041024538037L207.8419327100118,108.85426993752228L209.4531104829576,111.66165337780718L211.06428825590345,86.57819193850962L212.67546602884926,94.57705556092176L214.28664380179512,93.76238988704443L215.89782157474096,77.63772243326751L217.50899934768677,76.04305004798766L219.12017712063258,84.9718622317394L220.7313548935784,104.89145771336867L222.34253266652428,101.66700098616488L223.9537104394701,113.16024701750678L225.56488821241592,99.70334492702459L227.17606598536173,105.14520261885674L228.78724375830757,111.7649240812506L230.39842153125338,118.13167010035163L232.00959930419924,113.06479623074217L233.62077707714505,114.57728849206444L235.2319548500909,106.58017794447782L236.8431326230367,97.98588832363299L238.45431039598253,105.93081366085002L240.06548816892834,96.89941061688438L241.6766659418742,104.55704982732532L243.28784371482,108.84309448732508L244.89902148776585,111.07738259589134L246.51019926071166,115.19884596656145L248.1213770336575,109.94952581031355L249.73255480660333,102.8691526975962L251.34373257954917,102.01179632999455L252.95491035249498,109.26295280503929L254.5660881254408,104.19590596718507L256.1772658983866,103.33590170875387L257.78844367133246,106.2184987046746L259.3996214442783,108.26318931094934L261.01079921722413,110.54448625704018" fill="none"></path></g></g></g></g><g opacity="0.2"><g><g><g><path style="fill: none;" stroke="rgb(255, 112, 67)" stroke-width="2px" d="M32.22355545891656,89.30999994277954L33.83473323186239,97.02159451608298L35.44591100480821,107.59858358735188L37.05708877775404,125.77905872524623L38.66826655069987,134.2498722075183L40.2794443236457,149.7730294484616L41.89062209659152,127.35844428923245L43.50179986953735,135.4452333404444L45.11297764248318,127.22435541714253L46.72415541542901,132.9414378740815L48.33533318837483,148.35828324523533L49.94651096132066,147.69023695449198L51.55768873426649,137.70685824351534L53.168866507212314,157.64305368445176L54.780044280158144,156.45957372276206L56.39122205310398,153.67090213226786L58.00239982604981,156.28099222989997L59.61357759899563,162.6768529141351L61.22475537194146,165.58611369997024L62.83593314488729,164.74609880427283L64.44711091783311,167.9747328663516L66.05828869077894,156.5693122272995L67.66946646372477,168.25847029045062L69.2806442366706,149.94222935552398L70.89182200961642,150.5349528897188L72.50299978256226,168.53469171971946L74.11417755550808,157.7372928438909L75.72535532845392,158.63466125416454L77.33653310139974,172.97212817204354L78.94771087434556,132.41648279378222L80.5588886472914,133.44133197671562L82.17006642023722,148.01764242347778L83.78124419318304,91.27248671929684L85.39242196612888,99.5627286173132L87.0035997390747,164.42447302804953L88.61477751202054,132.54517409364192L90.22595528496636,156.5949497376975L91.83713305791218,156.28160323967336L93.44831083085802,120.36414454364316L95.05948860380384,123.64394540691858L96.67066637674967,138.73928854457765L98.2818441496955,142.81214561668656L99.89302192264132,161.9079344644376L101.50419969558715,129.07293771339468L103.11537746853298,102.0538097172942L104.7265552414788,137.29099235015735L106.33773301442463,151.63903414251578L107.94891078737048,138.67844039886793L109.56008856031629,143.7816859650848L111.17126633326214,155.2339436636634L112.78244410620796,149.58211858283659L114.39362187915378,155.68370431862044L116.00479965209962,143.9083163040787L117.61597742504544,107.26199573324483L119.22715519799127,151.28923008954837L120.8383329709371,127.6284493165591L122.44951074388293,143.99630937301296L124.06068851682875,96.05413811324419L125.67186628977458,109.26832964372039L127.2830440627204,143.12403258666265L128.89422183566623,105.87685381546584L130.50539960861207,151.9867695730529L132.11657738155787,155.39926681906005L133.7277551545037,144.6379960508988L135.33893292744955,136.69528272117654L136.95011070039536,131.11814640243117L138.5612884733412,80.59510816764086L140.17246624628703,89.40331013751617L141.78364401923284,135.50390177103768L143.3948217921787,101.07701386726075L145.0059995651245,132.26611309700922L146.61717733807032,143.64385441870888L148.22835511101616,67.40652158591331L149.83953288396202,145.47329046513372L151.45071065690783,111.88596446704976L153.06188842985367,137.37562199225118L154.67306620279948,142.32434912448755L156.2842439757453,105.99104943518415L157.89542174869112,139.46999877183063L159.50659952163699,139.53852763600847L161.1177772945828,128.25236882623784L162.72895506752863,110.96228624408823L164.34013284047444,115.4633481592738L165.95131061342028,131.23736800849872L167.56248838636608,97.30562403733073L169.17366615931195,112.4190867751665L170.78484393225776,115.70163047855323L172.3960217052036,114.88052528187745L174.0071994781494,99.39074947770789L175.61837725109524,77.88649226520012L177.22955502404108,140.42490936270772L178.8407327969869,114.0207061994964L180.45191056993272,112.31940982028321L182.06308834287856,120.57543517098914L183.67426611582437,109.23602848754915L185.2854438887702,113.87856885383964L186.89662166171604,128.0779150012807L188.50779943466188,85.13361214881526L190.11897720760768,90.34711529056825L191.73015498055352,60.136723471210196L193.34133275349933,112.94434065648348L194.9525105264452,146.49567837045322L196.563688299391,92.38409545927081L198.17486607233684,86.20603198608148L199.78604384528265,64.22661220132878L201.39722161822849,66.63884047889174L203.0083993911743,129.75427681864397L204.61957716412016,116.77133812196635L206.23075493706597,125.78637168861565L207.8419327100118,101.49505947573515L209.4531104829576,115.87272853823451L211.06428825590345,48.95299977956331L212.67546602884926,106.57535099453997L214.28664380179512,92.54039137622848L215.89782157474096,53.450721252602136L217.50899934768677,73.65104147006788L219.12017712063258,98.36508050736694L220.7313548935784,134.7708509358126L222.34253266652428,96.8303158953592L223.9537104394701,130.40011606451958L225.56488821241592,79.51799179130134L227.17606598536173,113.30798915660496L228.78724375830757,121.69450627484142L230.39842153125338,127.68178912900318L232.00959930419924,105.46448542632798L233.62077707714505,116.84602688404783L235.2319548500909,94.58451212309792L236.8431326230367,85.09445389236572L238.45431039598253,117.84820166667551L240.06548816892834,83.35230605093595L241.6766659418742,116.04350864298671L243.28784371482,115.27216147732473L244.89902148776585,114.42881475874071L246.51019926071166,121.38104102256663L248.1213770336575,102.07554557594169L249.73255480660333,92.24859302852019L251.34373257954917,100.72576177859209L252.95491035249498,120.13968751760639L254.5660881254408,96.59533571040373L256.1772658983866,102.04589532110708L257.78844367133246,110.54239419855567L259.3996214442783,111.33022522036148L261.01079921722413,113.96643167617641" fill="none"></path></g></g></g></g></g></g><g transform="translate(39, 178)" clip-path="url(#clip_1)"><clipPath id="clip_1"><rect width="290" height="21"></rect></clipPath><g><g><line x1="0" y1="0" x2="0" y2="5" style="visibility: inherit;" fill="rgb(0, 0, 0)" stroke="rgb(204, 204, 204)" stroke-width="1px"></line><line x1="32.22355545891656" y1="0" x2="32.22355545891656" y2="5" style="visibility: inherit;" fill="rgb(0, 0, 0)" stroke="rgb(204, 204, 204)" stroke-width="1px"></line><line x1="64.44711091783311" y1="0" x2="64.44711091783311" y2="5" style="visibility: inherit;" fill="rgb(0, 0, 0)" stroke="rgb(204, 204, 204)" stroke-width="1px"></line><line x1="96.67066637674967" y1="0" x2="96.67066637674967" y2="5" style="visibility: inherit;" fill="rgb(0, 0, 0)" stroke="rgb(204, 204, 204)" stroke-width="1px"></line><line x1="128.89422183566623" y1="0" x2="128.89422183566623" y2="5" style="visibility: inherit;" fill="rgb(0, 0, 0)" stroke="rgb(204, 204, 204)" stroke-width="1px"></line><line x1="161.1177772945828" y1="0" x2="161.1177772945828" y2="5" style="visibility: inherit;" fill="rgb(0, 0, 0)" stroke="rgb(204, 204, 204)" stroke-width="1px"></line><line x1="193.34133275349933" y1="0" x2="193.34133275349933" y2="5" style="visibility: inherit;" fill="rgb(0, 0, 0)" stroke="rgb(204, 204, 204)" stroke-width="1px"></line><line x1="225.56488821241592" y1="0" x2="225.56488821241592" y2="5" style="visibility: inherit;" fill="rgb(0, 0, 0)" stroke="rgb(204, 204, 204)" stroke-width="1px"></line><line x1="257.78844367133246" y1="0" x2="257.78844367133246" y2="5" style="visibility: inherit;" fill="rgb(0, 0, 0)" stroke="rgb(204, 204, 204)" stroke-width="1px"></line><line x1="290.011999130249" y1="0" x2="290.011999130249" y2="5" style="visibility: inherit;" fill="rgb(0, 0, 0)" stroke="rgb(204, 204, 204)" stroke-width="1px"></line></g><g transform="translate(0, 8)"><text style="text-anchor: middle; visibility: hidden; font-family: Roboto, sans-serif; font-size: 12px; font-weight: 200;" x="0" y="0" dx="0em" dy="0.95em" fill="rgb(50, 49, 63)" stroke="none" stroke-width="1px">-2k</text><text style="text-anchor: middle; visibility: hidden; font-family: Roboto, sans-serif; font-size: 12px; font-weight: 200;" x="32.22355545891656" y="0" dx="0em" dy="0.95em" fill="rgb(50, 49, 63)" stroke="none" stroke-width="1px">0</text><text style="text-anchor: middle; visibility: hidden; font-family: Roboto, sans-serif; font-size: 12px; font-weight: 200;" x="64.44711091783311" y="0" dx="0em" dy="0.95em" fill="rgb(50, 49, 63)" stroke="none" stroke-width="1px">2k</text><text style="text-anchor: middle; visibility: hidden; font-family: Roboto, sans-serif; font-size: 12px; font-weight: 200;" x="96.67066637674967" y="0" dx="0em" dy="0.95em" fill="rgb(50, 49, 63)" stroke="none" stroke-width="1px">4k</text><text style="text-anchor: middle; visibility: hidden; font-family: Roboto, sans-serif; font-size: 12px; font-weight: 200;" x="128.89422183566623" y="0" dx="0em" dy="0.95em" fill="rgb(50, 49, 63)" stroke="none" stroke-width="1px">6k</text><text style="text-anchor: middle; visibility: hidden; font-family: Roboto, sans-serif; font-size: 12px; font-weight: 200;" x="161.1177772945828" y="0" dx="0em" dy="0.95em" fill="rgb(50, 49, 63)" stroke="none" stroke-width="1px">8k</text><text style="text-anchor: middle; visibility: hidden; font-family: Roboto, sans-serif; font-size: 12px; font-weight: 200;" x="193.34133275349933" y="0" dx="0em" dy="0.95em" fill="rgb(50, 49, 63)" stroke="none" stroke-width="1px">10k</text><text style="text-anchor: middle; visibility: hidden; font-family: Roboto, sans-serif; font-size: 12px; font-weight: 200;" x="225.56488821241592" y="0" dx="0em" dy="0.95em" fill="rgb(50, 49, 63)" stroke="none" stroke-width="1px">12k</text><text style="text-anchor: middle; visibility: hidden; font-family: Roboto, sans-serif; font-size: 12px; font-weight: 200;" x="257.78844367133246" y="0" dx="0em" dy="0.95em" fill="rgb(50, 49, 63)" stroke="none" stroke-width="1px">14k</text><text style="text-anchor: middle; visibility: hidden; font-family: Roboto, sans-serif; font-size: 12px; font-weight: 200;" x="290.011999130249" y="0" dx="0em" dy="0.95em" fill="rgb(50, 49, 63)" stroke="none" stroke-width="1px">16k</text></g><line x1="0" y1="0" x2="290.011999130249" y2="0" fill="rgb(0, 0, 0)" stroke="rgb(204, 204, 204)" stroke-width="1px"></line></g></g></g></g></svg>