<svg viewBox="0 0 330 200" xmlns="http://www.w3.org/2000/svg"><g><g><g><g><g><line x1="29.992000579833984" y1="171.34680221450958" x2="24.992000579833984" y2="171.34680221450958" style="visibility: inherit;" fill="rgb(0, 0, 0)" stroke="rgb(204, 204, 204)" stroke-width="1px"></line><line x1="29.992000579833984" y1="148.0579525134765" x2="24.992000579833984" y2="148.0579525134765" style="visibility: inherit;" fill="rgb(0, 0, 0)" stroke="rgb(204, 204, 204)" stroke-width="1px"></line><line x1="29.992000579833984" y1="124.76910281244336" x2="24.992000579833984" y2="124.76910281244336" style="visibility: inherit;" fill="rgb(0, 0, 0)" stroke="rgb(204, 204, 204)" stroke-width="1px"></line><line x1="29.992000579833984" y1="101.48025311141026" x2="24.992000579833984" y2="101.48025311141026" style="visibility: inherit;" fill="rgb(0, 0, 0)" stroke="rgb(204, 204, 204)" stroke-width="1px"></line><line x1="29.992000579833984" y1="78.19140341037716" x2="24.992000579833984" y2="78.19140341037716" style="visibility: inherit;" fill="rgb(0, 0, 0)" stroke="rgb(204, 204, 204)" stroke-width="1px"></line><line x1="29.992000579833984" y1="54.902553709344055" x2="24.992000579833984" y2="54.902553709344055" style="visibility: inherit;" fill="rgb(0, 0, 0)" stroke="rgb(204, 204, 204)" stroke-width="1px"></line><line x1="29.992000579833984" y1="31.613704008310954" x2="24.992000579833984" y2="31.613704008310954" style="visibility: inherit;" fill="rgb(0, 0, 0)" stroke="rgb(204, 204, 204)" stroke-width="1px"></line><line x1="29.992000579833984" y1="8.324854307277832" x2="24.992000579833984" y2="8.324854307277832" style="visibility: inherit;" fill="rgb(0, 0, 0)" stroke="rgb(204, 204, 204)" stroke-width="1px"></line></g><g transform="translate(19.992000579833984, 0)"><text style="text-anchor: end; visibility: inherit; font-family: Roboto, sans-serif; font-size: 12px; font-weight: 200;" x="0" y="171.34680221450958" dx="0em" dy="0.3em" fill="rgb(50, 49, 63)" stroke="none" stroke-width="1px">-1</text><text style="text-anchor: end; visibility: hidden; font-family: Roboto, sans-serif; font-size: 12px; font-weight: 200;" x="0" y="148.0579525134765" dx="0em" dy="0.3em" fill="rgb(50, 49, 63)" stroke="none" stroke-width="1px">0</text><text style="text-anchor: end; visibility: inherit; font-family: Roboto, sans-serif; font-size: 12px; font-weight: 200;" x="0" y="124.76910281244336" dx="0em" dy="0.3em" fill="rgb(50, 49, 63)" stroke="none" stroke-width="1px">1</text><text style="text-anchor: end; visibility: hidden; font-family: Roboto, sans-serif; font-size: 12px; font-weight: 200;" x="0" y="101.48025311141026" dx="0em" dy="0.3em" fill="rgb(50, 49, 63)" stroke="none" stroke-width="1px">2</text><text style="text-anchor: end; visibility: inherit; font-family: Roboto, sans-serif; font-size: 12px; font-weight: 200;" x="0" y="78.19140341037716" dx="0em" dy="0.3em" fill="rgb(50, 49, 63)" stroke="none" stroke-width="1px">3</text><text style="text-anchor: end; visibility: hidden; font-family: Roboto, sans-serif; font-size: 12px; font-weight: 200;" x="0" y="54.902553709344055" dx="0em" dy="0.3em" fill="rgb(50, 49, 63)" stroke="none" stroke-width="1px">4</text><text style="text-anchor: end; visibility: inherit; font-family: Roboto, sans-serif; font-size: 12px; font-weight: 200;" x="0" y="31.613704008310954" dx="0em" dy="0.3em" fill="rgb(50, 49, 63)" stroke="none" stroke-width="1px">5</text><text style="text-anchor: end; visibility: hidden; font-family: Roboto, sans-serif; font-size: 12px; font-weight: 200;" x="0" y="8.324854307277832" dx="0em" dy="0.3em" fill="rgb(50, 49, 63)" stroke="none" stroke-width="1px">6</text></g><line x1="29.992000579833984" y1="0" x2="29.992000579833984" y2="178.61999988555908" fill="rgb(0, 0, 0)" stroke="rgb(204, 204, 204)" stroke-width="1px"></line></g></g><g transform="translate(30, 0)" clip-path="url(#clip_0)"><clipPath id="clip_0"><rect width="300" height="178"></rect></clipPath><g><g><g><line x1="31.48279903106818" y1="0" x2="31.48279903106818" y2="178.61999988555908" fill="rgb(0, 0, 0)" stroke="rgb(60, 60, 60)" stroke-width="1px" opacity="0.25"></line><line x1="68.68881146155097" y1="0" x2="68.68881146155097" y2="178.61999988555908" fill="rgb(0, 0, 0)" stroke="rgb(60, 60, 60)" stroke-width="1px" opacity="0.25"></line><line x1="105.89482389203377" y1="0" x2="105.89482389203377" y2="178.61999988555908" fill="rgb(0, 0, 0)" stroke="rgb(60, 60, 60)" stroke-width="1px" opacity="0.25"></line><line x1="143.10083632251656" y1="0" x2="143.10083632251656" y2="178.61999988555908" fill="rgb(0, 0, 0)" stroke="rgb(60, 60, 60)" stroke-width="1px" opacity="0.25"></line><line x1="180.30684875299931" y1="0" x2="180.30684875299931" y2="178.61999988555908" fill="rgb(0, 0, 0)" stroke="rgb(60, 60, 60)" stroke-width="1px" opacity="0.25"></line><line x1="217.5128611834821" y1="0" x2="217.5128611834821" y2="178.61999988555908" fill="rgb(0, 0, 0)" stroke="rgb(60, 60, 60)" stroke-width="1px" opacity="0.25"></line><line x1="254.7188736139649" y1="0" x2="254.7188736139649" y2="178.61999988555908" fill="rgb(0, 0, 0)" stroke="rgb(60, 60, 60)" stroke-width="1px" opacity="0.25"></line><line x1="291.92488604444765" y1="0" x2="291.92488604444765" y2="178.61999988555908" fill="rgb(0, 0, 0)" stroke="rgb(60, 60, 60)" stroke-width="1px" opacity="0.25"></line></g><g><line x1="0" y1="171.34680221450958" x2="300.007999420166" y2="171.34680221450958" fill="rgb(0, 0, 0)" stroke="rgb(60, 60, 60)" stroke-width="1px" opacity="0.25"></line><line x1="0" y1="148.0579525134765" x2="300.007999420166" y2="148.0579525134765" fill="rgb(0, 0, 0)" stroke="rgb(60, 60, 60)" stroke-width="1px" opacity="0.25"></line><line x1="0" y1="124.76910281244336" x2="300.007999420166" y2="124.76910281244336" fill="rgb(0, 0, 0)" stroke="rgb(60, 60, 60)" stroke-width="1px" opacity="0.25"></line><line x1="0" y1="101.48025311141026" x2="300.007999420166" y2="101.48025311141026" fill="rgb(0, 0, 0)" stroke="rgb(60, 60, 60)" stroke-width="1px" opacity="0.25"></line><line x1="0" y1="78.19140341037716" x2="300.007999420166" y2="78.19140341037716" fill="rgb(0, 0, 0)" stroke="rgb(60, 60, 60)" stroke-width="1px" opacity="0.25"></line><line x1="0" y1="54.902553709344055" x2="300.007999420166" y2="54.902553709344055" fill="rgb(0, 0, 0)" stroke="rgb(60, 60, 60)" stroke-width="1px" opacity="0.25"></line><line x1="0" y1="31.613704008310954" x2="300.007999420166" y2="31.613704008310954" fill="rgb(0, 0, 0)" stroke="rgb(60, 60, 60)" stroke-width="1px" opacity="0.25"></line><line x1="0" y1="8.324854307277832" x2="300.007999420166" y2="8.324854307277832" fill="rgb(0, 0, 0)" stroke="rgb(60, 60, 60)" stroke-width="1px" opacity="0.25"></line></g></g></g><g><g><line x1="0" y1="148.0579525134765" x2="300.007999420166" y2="148.0579525134765" fill="rgb(0, 0, 0)" stroke="rgb(153, 153, 153)" stroke-width="1.5px"></line></g></g><g><g><line x1="31.48279903106818" y1="0" x2="31.48279903106818" y2="178.61999988555908" fill="rgb(0, 0, 0)" stroke="rgb(153, 153, 153)" stroke-width="1.5px"></line></g></g><g><g><g><g><g><path style="fill: none;" stroke="rgb(255, 112, 67)" stroke-width="2px" d="M31.48279903106818,131.4440506785604L33.34309965259232,130.3424808927792L35.203400274116454,129.08346091979465L37.063700895640594,124.65653034567563L38.92400151716473,122.09621464517909L40.78430213868888,114.90462379125L42.64460276021302,116.34352638939961L44.50490338173715,116.83613748763125L46.3652040032613,116.10619074092449L48.22550462478543,115.6633441971489L50.08580524630957,113.96757939857524L51.946105867833715,112.18080643796468L53.80640648935785,111.4238891270331L55.666707110881994,106.78945873365151L57.527007732406126,104.41157796467807L59.387308353930266,102.53034327965545L61.24760897545441,99.41584298197895L63.107909596978544,96.16474203138387L64.96821021850269,93.17696586958073L66.82851084002682,91.7618935132833L68.68881146155097,88.22001757718596L70.5491120830751,89.13222061771528L72.40941270459923,87.53131987610553L74.26971332612338,91.0283200982654L76.13001394764751,91.55677500356924L77.99031456917167,88.38470238002434L79.8506151906958,90.40067672302244L81.71091581221994,94.53141358774909L83.57121643374408,85.01916459737252L85.43151705526823,94.47151211942503L87.29181767679238,99.1825086440543L89.1521182983165,96.11642766804266L91.01241891984064,105.22258198603421L92.87271954136479,97.52970827276643L94.73302016288892,91.11912921756515L96.59332078441307,97.54280563255749L98.4536214059372,95.1093811162991L100.31392202746133,95.95964607440575L102.17422264898548,101.958792303534L104.03452327050962,101.43902209292291L105.89482389203377,101.80094850661736L107.75512451355789,98.71226464665524L109.61542513508203,96.05679883862372L111.47572575660618,102.973709893499L113.33602637813031,105.00545551511992L115.19632699965446,103.5510034598595L117.05662762117859,103.49333624683355L118.91692824270272,108.9546171403135L120.77722886422687,106.25962236534328L122.63752948575102,107.57771182608788L124.49783010727515,101.1371344266449L126.35813072879928,98.1917124932564L128.2184313503234,105.95782690261048L130.07873197184756,109.22217257024536L131.9390325933717,108.99636757493225L133.79933321489585,104.69106007671691L135.65963383641997,106.73038939920731L137.51993445794412,112.69204822372026L139.38023507946826,112.26668002915508L141.2405357009924,109.17093509879508L143.10083632251656,110.68136475702413L144.96113694404067,109.51926728466276L146.82143756556482,105.10938224610867L148.68173818708897,100.97785690066432L150.5420388086131,105.58944268649485L152.40233943013723,110.61618055560638L154.26264005166138,110.69568775034087L156.12294067318552,114.90329537111595L157.98324129470967,115.31394868027985L159.8435419162338,118.90119773370789L161.7038425377579,111.02190429653558L163.56414315928205,110.39556832375456L165.4244437808062,107.7240068414001L167.28474440233035,111.89275467770855L169.1450450238545,113.88498844485542L171.00534564537864,116.08853288023305L172.8656462669028,113.32781930806098L174.72594688842693,113.11548170152018L176.58624750995105,114.12155202957723L178.44654813147517,114.63846426303013L180.30684875299931,115.57206900094444L182.16714937452346,118.92626926324074L184.0274499960476,114.18417103256982L185.88775061757175,116.11872475198776L187.74805123909587,117.97697910501141L189.60835186062002,118.5150208799962L191.46865248214417,120.38244551536944L193.3289531036683,123.38828032738255L195.18925372519246,119.46636931190581L197.04955434671658,114.13922449580195L198.9098549682407,114.50298605565919L200.77015558976484,120.99931410105808L202.630456211289,124.1478673210796L204.49075683281313,121.20844346745262L206.35105745433728,121.21710096523876L208.21135807586143,121.03512198634373L210.07165869738557,119.64381365698252L211.9319593189097,117.08799413569199L213.79225994043384,113.92093079189321L215.65256056195796,112.55446518252646L217.5128611834821,116.41426367923322L219.37316180500625,115.91253168725294L221.2334624265304,113.32701415161183L223.0937630480545,118.74437456624803L224.95406366957866,118.94977898038437L226.8143642911028,116.36977859864058L228.67466491262695,119.2089308350712L230.5349655341511,120.28507914346758L232.39526615567524,119.49889974253657L234.2555667771994,121.45073155554819L236.11586739872348,121.92601646927653L237.97616802024763,117.9388294433895L239.83646864177177,122.43347543448597L241.69676926329592,119.81069849313268L243.55706988482007,114.47973706579482L245.4173705063442,116.63209245232585L247.27767112786833,120.58024268666644L249.13797174939248,121.47922263604487L250.99827237091662,124.23604368608413L252.85857299244077,121.88228918331218L254.7188736139649,123.18420015796798L256.579174235489,124.47870261756431L258.4394748570132,124.55543221139582L260.2997754785373,123.99137520300665L262.1600761000615,126.27140299037103L264.0203767215856,125.90538452859977L265.8806773431097,126.84729532450552L267.7409779646339,123.93054582247723L269.601278586158,123.94525653876423L271.4615792076822,126.73693821950198L273.3218798292063,125.34631009739813L275.1821804507304,125.17037133704258L277.04248107225453,125.54883956666882L278.9027816937787,125.34362160943878L280.7630823153028,123.87736019450799L282.623382936827,123.41409595459129L284.4836835583511,125.40158846309713L286.3439841798753,123.08146270531469L288.2042848013994,121.56284257052755L290.0645854229235,125.26354184495158L291.92488604444765,126.2386829340366L293.7851866659718,124.48453609921755L295.64548728749594,123.38029652901118" fill="none"></path></g></g></g></g><g opacity="0.2"><g><g><g><path style="fill: none;" stroke="rgb(255, 112, 67)" stroke-width="2px" d="M31.48279903106818,131.4440506785604L33.34309965259232,129.6815390213105L35.203400274116454,127.87480174572947L37.063700895640594,119.45045999051163L38.92400151716473,118.75346646661082L40.78430213868888,104.95606466755866L42.64460276021302,118.40118012719513L44.50490338173715,117.55436919791948L46.3652040032613,115.02966107438806L48.22550462478543,115.00576869074978L50.08580524630957,111.43931266262955L51.946105867833715,109.51037053659658L53.80640648935785,110.29098462698411L55.666707110881994,99.84689247517508L57.527007732406126,100.8475519207996L59.387308353930266,99.70981804457361L61.24760897545441,94.74541048761115L63.107909596978544,91.28891605967041L64.96821021850269,88.69575678450232L66.82851084002682,89.63941432205561L68.68881146155097,82.90739791793392L70.5491120830751,90.50049516207966L72.40941270459923,85.13000037068339L74.26971332612338,96.27377900620372L76.13001394764751,92.34945360549368L77.99031456917167,83.62660697214773L79.8506151906958,93.42463307919382L81.71091581221994,100.72751254318496L83.57121643374408,70.75079987393339L85.43151705526823,108.650028178335L87.29181767679238,106.24900186878048L89.1521182983165,91.51730681407271L91.01241891984064,118.88181237592958L92.87271954136479,85.9903982538895L94.73302016288892,81.50326091026923L96.59332078441307,107.1783200894047L98.4536214059372,91.45924437956066L100.31392202746133,97.23504350367267L102.17422264898548,110.9575116138124L104.03452327050962,100.65936677874326L105.89482389203377,102.34383812643334L107.75512451355789,94.07923886042799L109.61542513508203,92.07360012849321L111.47572575660618,113.34907647281624L113.33602637813031,108.05307394702326L115.19632699965446,101.36932537719566L117.05662762117859,103.40683542730001L118.91692824270272,117.14653848022688L120.77722886422687,102.21713020297868L122.63752948575102,109.55484601717816L124.49783010727515,91.47626832755854L126.35813072879928,93.77357959319505L128.2184313503234,117.60699851660769L130.07873197184756,114.11869107168917L131.9390325933717,108.65766008196289L133.79933321489585,98.233098829398L135.65963383641997,109.78938338294174L137.51993445794412,121.63453646048765L139.38023507946826,111.6286277373074L141.2405357009924,104.52731770325548L143.10083632251656,112.94700924436756L144.96113694404067,107.77612107612076L146.82143756556482,98.49455468827762L148.68173818708897,94.78056888249787L150.5420388086131,112.50682136524061L152.40233943013723,118.15628735927366L154.26264005166138,110.81494854244254L156.12294067318552,121.21470680227861L157.98324129470967,115.92992864402565L159.8435419162338,124.28207131384993L161.7038425377579,99.20296414077715L163.56414315928205,109.45606436458307L165.4244437808062,103.71666461786836L167.28474440233035,118.14587643217124L169.1450450238545,116.87333909557574L171.00534564537864,119.39384953329944L172.8656462669028,109.18674894980293L174.72594688842693,112.796975291709L176.58624750995105,115.63065752166277L178.44654813147517,115.41383261320945L180.30684875299931,116.97247610781592L182.16714937452346,123.9575696566852L184.0274499960476,107.07102368656341L185.88775061757175,119.02055533111468L187.74805123909587,120.7643606345469L189.60835186062002,119.32208354247337L191.46865248214417,123.18358246842926L193.3289531036683,127.8970325454022L195.18925372519246,113.58350278869071L197.04955434671658,106.14850727164611L198.9098549682407,115.04862839544508L200.77015558976484,130.7438061691564L202.630456211289,128.87069715111195L204.49075683281313,116.79930768701216L206.35105745433728,121.23008721191792L208.21135807586143,120.7621535180012L210.07165869738557,117.55685116294069L211.9319593189097,113.25426485375621L213.79225994043384,109.17033577619505L215.65256056195796,110.5047667684763L217.5128611834821,122.20396142429333L219.37316180500625,115.15993369928258L221.2334624265304,109.44873784815019L223.0937630480545,126.87041518820227L224.95406366957866,119.25788560158892L226.8143642911028,112.49977802602491L228.67466491262695,123.46765918971705L230.5349655341511,121.89930160606221L232.39526615567524,118.31963064113998L234.2555667771994,124.37847927506569L236.11586739872348,122.63894383986906L237.97616802024763,111.95804890455892L239.83646864177177,129.1754444211307L241.69676926329592,115.87653308110269L243.55706988482007,106.48329492478803L245.4173705063442,119.8606255321224L247.27767112786833,126.50246803817728L249.13797174939248,122.82769256011254L250.99827237091662,128.371275261143L252.85857299244077,118.35165742915427L254.7188736139649,125.1370666199517L256.579174235489,126.42045630695878L258.4394748570132,124.6705266021431L260.2997754785373,123.14528969042293L262.1600761000615,129.69144467141754L264.0203767215856,125.35635683594288L265.8806773431097,128.26016151836419L267.7409779646339,119.55542156943476L269.601278586158,123.96732261319477L271.4615792076822,130.92446074060862L273.3218798292063,123.26036791424235L275.1821804507304,124.90646319650922L277.04248107225453,126.11654191110821L278.9027816937787,125.03579467359371L280.7630823153028,121.67796807211177L282.623382936827,122.71919959471626L284.4836835583511,128.38282722585586L286.3439841798753,119.60127406864106L288.2042848013994,119.28491236834684L290.0645854229235,130.81459075658762L291.92488604444765,127.70139456766414L293.7851866659718,121.85331584698898L295.64548728749594,121.72393717370163" fill="none"></path></g></g></g></g></g></g><g transform="translate(30, 178)" clip-path="url(#clip_1)"><clipPath id="clip_1"><rect width="300" height="21"></rect></clipPath><g><g><line x1="31.48279903106818" y1="0" x2="31.48279903106818" y2="5" style="visibility: inherit;" fill="rgb(0, 0, 0)" stroke="rgb(204, 204, 204)" stroke-width="1px"></line><line x1="68.68881146155097" y1="0" x2="68.68881146155097" y2="5" style="visibility: inherit;" fill="rgb(0, 0, 0)" stroke="rgb(204, 204, 204)" stroke-width="1px"></line><line x1="105.89482389203377" y1="0" x2="105.89482389203377" y2="5" style="visibility: inherit;" fill="rgb(0, 0, 0)" stroke="rgb(204, 204, 204)" stroke-width="1px"></line><line x1="143.10083632251656" y1="0" x2="143.10083632251656" y2="5" style="visibility: inherit;" fill="rgb(0, 0, 0)" stroke="rgb(204, 204, 204)" stroke-width="1px"></line><line x1="180.30684875299931" y1="0" x2="180.30684875299931" y2="5" style="visibility: inherit;" fill="rgb(0, 0, 0)" stroke="rgb(204, 204, 204)" stroke-width="1px"></line><line x1="217.5128611834821" y1="0" x2="217.5128611834821" y2="5" style="visibility: inherit;" fill="rgb(0, 0, 0)" stroke="rgb(204, 204, 204)" stroke-width="1px"></line><line x1="254.7188736139649" y1="0" x2="254.7188736139649" y2="5" style="visibility: inherit;" fill="rgb(0, 0, 0)" stroke="rgb(204, 204, 204)" stroke-width="1px"></line><line x1="291.92488604444765" y1="0" x2="291.92488604444765" y2="5" style="visibility: inherit;" fill="rgb(0, 0, 0)" stroke="rgb(204, 204, 204)" stroke-width="1px"></line></g><g transform="translate(0, 8)"><text style="text-anchor: middle; visibility: hidden; font-family: Roboto, sans-serif; font-size: 12px; font-weight: 200;" x="31.48279903106818" y="0" dx="0em" dy="0.95em" fill="rgb(50, 49, 63)" stroke="none" stroke-width="1px">0</text><text style="text-anchor: middle; visibility: hidden; font-family: Roboto, sans-serif; font-size: 12px; font-weight: 200;" x="68.68881146155097" y="0" dx="0em" dy="0.95em" fill="rgb(50, 49, 63)" stroke="none" stroke-width="1px">2k</text><text style="text-anchor: middle; visibility: hidden; font-family: Roboto, sans-serif; font-size: 12px; font-weight: 200;" x="105.89482389203377" y="0" dx="0em" dy="0.95em" fill="rgb(50, 49, 63)" stroke="none" stroke-width="1px">4k</text><text style="text-anchor: middle; visibility: hidden; font-family: Roboto, sans-serif; font-size: 12px; font-weight: 200;" x="143.10083632251656" y="0" dx="0em" dy="0.95em" fill="rgb(50, 49, 63)" stroke="none" stroke-width="1px">6k</text><text style="text-anchor: middle; visibility: hidden; font-family: Roboto, sans-serif; font-size: 12px; font-weight: 200;" x="180.30684875299931" y="0" dx="0em" dy="0.95em" fill="rgb(50, 49, 63)" stroke="none" stroke-width="1px">8k</text><text style="text-anchor: middle; visibility: hidden; font-family: Roboto, sans-serif; font-size: 12px; font-weight: 200;" x="217.5128611834821" y="0" dx="0em" dy="0.95em" fill="rgb(50, 49, 63)" stroke="none" stroke-width="1px">10k</text><text style="text-anchor: middle; visibility: hidden; font-family: Roboto, sans-serif; font-size: 12px; font-weight: 200;" x="254.7188736139649" y="0" dx="0em" dy="0.95em" fill="rgb(50, 49, 63)" stroke="none" stroke-width="1px">12k</text><text style="text-anchor: middle; visibility: hidden; font-family: Roboto, sans-serif; font-size: 12px; font-weight: 200;" x="291.92488604444765" y="0" dx="0em" dy="0.95em" fill="rgb(50, 49, 63)" stroke="none" stroke-width="1px">14k</text></g><line x1="0" y1="0" x2="300.007999420166" y2="0" fill="rgb(0, 0, 0)" stroke="rgb(204, 204, 204)" stroke-width="1px"></line></g></g></g></g></svg>